<svg xmlns="http://www.w3.org/2000/svg" viewBox="0 0 256.5 55.67"><title>Acer Predator logo - Brandlogos.net</title><path d="M426.35,484.17v31.68l-9.07,9.07v-8.15l2.92-2.92V506l-4.77,7.54v26.3l-4.31-10.92L406.2,524V490.78l5.54,15.53,9.23-9.38Zm-42.6,0v31.68l9.07,9.07v-8.15L389.9,514v-7.84l4.77,7.38v26.3L399,528.92l4.92-4.92V490.78l-5.54,15.38-9.23-9.38Zm205.14,16.61-3.23,5.69h1.54v12.61l1.69,3.08h18.76l1.69-3.08V503.85l-1.69-3.08Zm5.23,15.69v-10h8.15v10Zm-78.73-15.69-3.23,5.69h1.54v15.69h20.45l1.69-3.08V503.85l-1.69-3.08Zm13.38,15.69h-8.15v-10h8.15Zm36.91-15.69-3.23,5.69h7.84v16.15l7.07-3.54V506.46h4.92l3.23-5.69Zm-59.36,13.84,3.23-5.69H498v-2.31h10.3l3.23-5.69H491.09V522.3h15.22l3.23-5.69H498.16v-1.85h8.15Zm-17.38-8.15-4.61-5.69H464.18v21.84l7.07-3.54V506.46h7.07l.62.77L472,513.69,491.55,528l-10.46-12.92ZM640.25,528l-10.46-12.92,8-8.61-4.61-5.69h-20.3v21.84l7.07-3.54V506.46H627l.62.77-6.92,6.46Zm-98.72-27.22-3.23,5.69h1.54v16.15l7.07-3.54v-4.46h7.54v8.15l7.07-3.54V504l-1.69-3.08-18.3-.15Zm12.76,8.46h-7.54v-2.61h7.54Zm-92-2.77-4.61-5.69H439.26L436,506.46h1.54v16.15l7.07-3.54v-5.38l5.07,2.31Zm-17.84,0h7.07l.62.77-7.84,5.38.15-6.15Z" transform="translate(-383.75 -484.17)" style="fill:#141414"/></svg>