<?xml version="1.0" encoding="UTF-8"?><svg id="Layer_1" xmlns="http://www.w3.org/2000/svg" viewBox="0 0 473.25 118.5"><g id="g36"><path id="path28" d="M342.11.28c-18.76,1-31.01,4.41-45.15,12.7-19.71,11.53-24.74,31.17-11.13,43.46,2.9,2.53,6.57,4.71,17.28,10.12,16.1,8.06,20.06,10.41,23.43,14.06,2.43,2.65,2.49,2.76,2.25,6.18-.3,4.41-2.54,7.65-6.69,10-4.79,2.65-9.17,3.53-19.53,3.88-13.14.47-24.68-.47-45.86-3.53-.59-.06-1.72,2.12-3.61,7.23-1.54,4.06-2.84,7.65-2.84,8-.12,1.24,17.69,3.88,33.38,5,12.43.88,35.45.35,43.97-.94,21.6-3.35,42.08-15.06,48.05-27.58,5.21-10.94,3.2-20.94-5.68-28.17-2.19-1.76-8.76-5.47-17.4-9.82-15.03-7.59-21.36-11.53-23.49-14.64-1.72-2.53-1.78-6.35-.18-9.41,4.08-8,15.33-10.76,38.88-9.47,10.06.53,23.55,1.94,30.95,3.23l2.07.41,2.6-7.29c1.42-4,2.72-7.53,2.84-7.94.36-.88-.47-1.12-9-2.53-15.15-2.59-38.29-3.82-55.15-2.94Z"/><path id="path30" d="M21.48,58.74C9.77,91.03.06,117.62,0,117.91c-.12.35,8.64.59,23.14.59h23.32l11.42-31.23c13.49-36.76,14.38-38.52,25.27-48.76,7.69-7.23,16.16-10.7,26.22-10.82,5.86-.06,8.94,1.12,10.77,4,.95,1.53,1.07,2.53.83,5.94-.24,3.53-2.19,9.47-13.85,41.17-7.46,20.35-13.73,37.64-13.97,38.35l-.41,1.35h23.08c21.84,0,23.14-.06,23.67-1.06.36-.59,5.39-14.23,11.3-30.35,5.86-16.06,11.42-30.76,12.37-32.58,3.91-7.7,14.85-19.23,21.36-22.47,8.52-4.23,20.24-5.7,25.21-3.12,3.31,1.76,4.62,4.59,4.2,8.94-.18,2.29-4.56,14.94-14.26,41.41-7.69,20.94-13.97,38.17-13.97,38.35s10.47.29,23.26.29h23.26l15.8-42.64c13.49-36.41,15.86-43.29,16.16-46.93,1.12-13.29-6.33-22.76-21.07-26.7-5.98-1.59-22.49-1.41-30.71.35-12.31,2.59-25.03,7.53-36.99,14.35l-4.68,2.65-1.66-3.41c-3.67-7.7-12.31-13.12-23.43-14.7-18.7-2.65-42.61,3.35-65.04,16.41l-3.02,1.71-1.54-3.41c-2.9-6.18-10.65-11.88-18.88-13.82-2.07-.47-6.1-1-9.05-1.24l-5.33-.35-21.3,58.58Z"/><path id="path32" d="M457.33.93c-8.52.59-20.59,2.06-27.4,3.35l-5.27,1-2.96,8.18c-1.6,4.47-2.78,8.23-2.66,8.35s3.31-.29,7.1-.94c9-1.53,21.66-2.82,32.43-3.29l8.7-.41.59-1.82c.3-1,1.66-4.82,3.02-8.47l2.37-6.59-4.56.06c-2.49.06-7.63.35-11.36.59Z"/><path id="path34" d="M450.53,29.51c-12.96,1-19.11,1.65-26.87,2.88-5.03.76-9.23,1.53-9.35,1.65-.36.35-30.36,82.75-30.36,83.4,0,.24,10.47.47,23.26.47h23.2l15.98-43.88c8.82-24.17,16.1-44.17,16.16-44.4.18-.47-6.69-.59-12.01-.12Z"/></g></svg>